<?xml version="1.0" standalone="no"?>
<!DOCTYPE svg PUBLIC "-//W3C//DTD SVG 20010904//EN"
 "http://www.w3.org/TR/2001/REC-SVG-20010904/DTD/svg10.dtd">
<svg version="1.0" xmlns="http://www.w3.org/2000/svg"
 width="24.000000pt" height="24.000000pt" viewBox="0 0 768.000000 768.000000"
 preserveAspectRatio="xMidYMid meet">
<metadata>
Created by potrace 1.16, written by Peter Selinger 2001-2019
</metadata>
<g transform="translate(0.000000,768.000000) scale(0.100000,-0.100000)"
fill="#017b01" stroke="none">
<path d="M0 3840 l0 -3840 3840 0 3840 0 0 3840 0 3840 -3840 0 -3840 0 0
-3840z m7430 0 l0 -3590 -3590 0 -3590 0 0 3590 0 3590 3590 0 3590 0 0 -3590z"/>
<path d="M3577 6310 c-837 -96 -1555 -586 -1938 -1325 -123 -236 -198 -457
-247 -725 -24 -134 -26 -166 -26 -420 0 -254 2 -286 26 -420 125 -687 503
-1267 1078 -1651 127 -85 387 -216 531 -267 135 -47 318 -93 474 -119 156 -25
562 -25 725 0 278 43 510 118 755 241 253 129 447 268 640 461 363 363 599
817 693 1335 24 134 26 166 26 420 0 254 -2 286 -26 420 -191 1050 -985 1844
-2028 2027 -121 21 -184 26 -375 28 -126 2 -265 0 -308 -5z"/>
</g>
</svg>